<svg width="32" height="32" viewBox="0 0 32 32" fill="none" xmlns="http://www.w3.org/2000/svg">
<g clip-path="url(#clip0_250_51)">
<path d="M7.8 30.6667C6.74444 30.6667 5.84722 30.2972 5.10833 29.5583C4.36944 28.8194 4 27.9222 4 26.8667C4 25.8111 4.36944 24.9139 5.10833 24.175C5.84722 23.4361 6.74444 23.0667 7.8 23.0667C8.11111 23.0667 8.38333 23.0944 8.61667 23.15C8.85 23.2056 9.08889 23.2889 9.33333 23.4L12.1667 19.8667C11.7444 19.3556 11.4222 18.7722 11.2 18.1167C10.9778 17.4611 10.9222 16.7778 11.0333 16.0667L7 14.7C6.66667 15.2556 6.22778 15.6889 5.68333 16C5.13889 16.3111 4.51111 16.4667 3.8 16.4667C2.74444 16.4667 1.84722 16.0972 1.10833 15.3583C0.369444 14.6194 0 13.7222 0 12.6667C0 11.6111 0.369444 10.7139 1.10833 9.975C1.84722 9.23611 2.74444 8.86667 3.8 8.86667C4.85556 8.86667 5.75278 9.23611 6.49167 9.975C7.23056 10.7139 7.6 11.6111 7.6 12.6667V12.8L11.6667 14.2C12.0667 13.4889 12.55 12.9444 13.1167 12.5667C13.6833 12.1889 14.3111 11.9222 15 11.7667V7.46667C14.1333 7.22222 13.45 6.74444 12.95 6.03333C12.45 5.32222 12.2 4.57778 12.2 3.8C12.2 2.74444 12.5694 1.84722 13.3083 1.10833C14.0472 0.369444 14.9444 0 16 0C17.0556 0 17.9528 0.369444 18.6917 1.10833C19.4306 1.84722 19.8 2.74444 19.8 3.8C19.8 4.57778 19.5444 5.32222 19.0333 6.03333C18.5222 6.74444 17.8444 7.22222 17 7.46667V11.7667C17.6889 11.9222 18.3222 12.1889 18.9 12.5667C19.4778 12.9444 19.9667 13.4889 20.3667 14.2L24.4 12.8V12.6667C24.4 11.6111 24.7694 10.7139 25.5083 9.975C26.2472 9.23611 27.1444 8.86667 28.2 8.86667C29.2556 8.86667 30.1528 9.23611 30.8917 9.975C31.6306 10.7139 32 11.6111 32 12.6667C32 13.7222 31.6306 14.6194 30.8917 15.3583C30.1528 16.0972 29.2556 16.4667 28.2 16.4667C27.4889 16.4667 26.8556 16.3111 26.3 16C25.7444 15.6889 25.3111 15.2556 25 14.7L20.9667 16.0667C21.0778 16.7778 21.0278 17.4611 20.8167 18.1167C20.6056 18.7722 20.2778 19.3556 19.8333 19.8667L22.6667 23.4C22.9111 23.2889 23.15 23.2056 23.3833 23.15C23.6167 23.0944 23.884 23.0667 24.1854 23.0667C25.2618 23.0667 26.1667 23.4361 26.9 24.175C27.6333 24.9139 28 25.8111 28 26.8667C28 27.9222 27.6306 28.8194 26.8917 29.5583C26.1528 30.2972 25.2556 30.6667 24.2 30.6667C23.1444 30.6667 22.2472 30.2972 21.5083 29.5583C20.7694 28.8194 20.4 27.9222 20.4 26.8667C20.4 26.4222 20.4611 26.0222 20.5833 25.6667C20.7056 25.3111 20.8778 24.9667 21.1 24.6333L18.2667 21.1C17.5527 21.4778 16.7909 21.6667 15.9812 21.6667C15.1715 21.6667 14.4111 21.4778 13.7 21.1L10.9 24.6667C11.1222 25 11.2944 25.3389 11.4167 25.6833C11.5389 26.0278 11.6 26.4222 11.6 26.8667C11.6 27.9222 11.2306 28.8194 10.4917 29.5583C9.75278 30.2972 8.85556 30.6667 7.8 30.6667ZM3.80117 14.4667C4.3115 14.4667 4.73889 14.2941 5.08333 13.9488C5.42778 13.6036 5.6 13.1758 5.6 12.6655C5.6 12.1552 5.42739 11.7278 5.08217 11.3833C4.73694 11.0389 4.30917 10.8667 3.79883 10.8667C3.2885 10.8667 2.86111 11.0393 2.51667 11.3845C2.17222 11.7297 2 12.1575 2 12.6678C2 13.1782 2.17261 13.6056 2.51783 13.95C2.86306 14.2944 3.29083 14.4667 3.80117 14.4667ZM7.80117 28.6667C8.3115 28.6667 8.73889 28.4941 9.08333 28.1488C9.42778 27.8036 9.6 27.3758 9.6 26.8655C9.6 26.3552 9.42739 25.9278 9.08217 25.5833C8.73694 25.2389 8.30917 25.0667 7.79883 25.0667C7.2885 25.0667 6.86111 25.2393 6.51667 25.5845C6.17222 25.9297 6 26.3575 6 26.8678C6 27.3782 6.17261 27.8056 6.51783 28.15C6.86306 28.4944 7.29083 28.6667 7.80117 28.6667ZM16.0012 5.6C16.5115 5.6 16.9389 5.42739 17.2833 5.08217C17.6278 4.73695 17.8 4.30917 17.8 3.79883C17.8 3.2885 17.6274 2.86111 17.2822 2.51667C16.9369 2.17222 16.5092 2 15.9988 2C15.4885 2 15.0611 2.17261 14.7167 2.51783C14.3722 2.86305 14.2 3.29083 14.2 3.80117C14.2 4.3115 14.3726 4.73889 14.7178 5.08333C15.0631 5.42778 15.4908 5.6 16.0012 5.6ZM16.0167 19.6667C16.85 19.6667 17.5556 19.3722 18.1333 18.7833C18.7111 18.1944 19 17.4833 19 16.65C19 15.8167 18.71 15.1111 18.13 14.5333C17.55 13.9556 16.84 13.6667 16 13.6667C15.1778 13.6667 14.4722 13.9567 13.8833 14.5367C13.2944 15.1167 13 15.8267 13 16.6667C13 17.4889 13.2944 18.1944 13.8833 18.7833C14.4722 19.3722 15.1833 19.6667 16.0167 19.6667ZM24.2012 28.6667C24.7115 28.6667 25.1389 28.4941 25.4833 28.1488C25.8278 27.8036 26 27.3758 26 26.8655C26 26.3552 25.8274 25.9278 25.4822 25.5833C25.1369 25.2389 24.7092 25.0667 24.1988 25.0667C23.6885 25.0667 23.2611 25.2393 22.9167 25.5845C22.5722 25.9297 22.4 26.3575 22.4 26.8678C22.4 27.3782 22.5726 27.8056 22.9178 28.15C23.2631 28.4944 23.6908 28.6667 24.2012 28.6667ZM28.2012 14.4667C28.7115 14.4667 29.1389 14.2941 29.4833 13.9488C29.8278 13.6036 30 13.1758 30 12.6655C30 12.1552 29.8274 11.7278 29.4822 11.3833C29.1369 11.0389 28.7092 10.8667 28.1988 10.8667C27.6885 10.8667 27.2611 11.0393 26.9167 11.3845C26.5722 11.7297 26.4 12.1575 26.4 12.6678C26.4 13.1782 26.5726 13.6056 26.9178 13.95C27.2631 14.2944 27.6908 14.4667 28.2012 14.4667Z" fill="black" fill-opacity="0.4"/>
</g>
<defs>
<clipPath id="clip0_250_51">
<rect width="32" height="32" fill="white"/>
</clipPath>
</defs>
</svg>
